<svg width="30" height="30" viewBox="0 0 30 30" fill="none" xmlns="http://www.w3.org/2000/svg">
<rect width="30" height="30" rx="15" fill="#3069EE"/>
<path d="M13.1955 8.955C13.263 8.5485 13.6155 8.25 14.028 8.25H15.9728C16.3853 8.25 16.7378 8.5485 16.8053 8.955L16.965 9.91575C17.0123 10.1963 17.1998 10.4303 17.4488 10.5683C17.5043 10.5983 17.559 10.6305 17.6138 10.6635C17.8575 10.8105 18.1538 10.8563 18.42 10.7565L19.3328 10.4145C19.5198 10.3442 19.7257 10.3425 19.9139 10.4098C20.1021 10.4771 20.2602 10.609 20.3603 10.782L21.3323 12.4673C21.432 12.6403 21.4672 12.8431 21.4315 13.0396C21.3958 13.2361 21.2915 13.4136 21.1373 13.5405L20.385 14.1607C20.1653 14.3415 20.0565 14.6205 20.0625 14.9048C20.0636 14.9685 20.0636 15.0323 20.0625 15.096C20.0565 15.3795 20.1653 15.6585 20.385 15.8393L21.138 16.4595C21.456 16.722 21.5385 17.1758 21.333 17.532L20.3595 19.2172C20.2596 19.3902 20.1016 19.5222 19.9136 19.5896C19.7256 19.657 19.5198 19.6556 19.3328 19.5855L18.42 19.2435C18.1538 19.1438 17.8575 19.1895 17.613 19.3365C17.5586 19.3696 17.5036 19.4016 17.448 19.4325C17.1998 19.5697 17.0123 19.8037 16.965 20.0842L16.8053 21.045C16.7378 21.4522 16.3853 21.75 15.9728 21.75H14.0273C13.6148 21.75 13.263 21.4515 13.1948 21.045L13.035 20.0842C12.9885 19.8037 12.801 19.5698 12.552 19.4318C12.4964 19.4011 12.4414 19.3693 12.387 19.3365C12.1433 19.1895 11.847 19.1438 11.58 19.2435L10.6673 19.5855C10.4803 19.6556 10.2745 19.6572 10.0865 19.5899C9.89853 19.5226 9.74048 19.3908 9.6405 19.218L8.66775 17.5327C8.56796 17.3597 8.53279 17.1569 8.56849 16.9604C8.6042 16.7639 8.70847 16.5864 8.86275 16.4595L9.61575 15.8393C9.83475 15.6593 9.9435 15.3795 9.93825 15.096C9.93708 15.0323 9.93708 14.9685 9.93825 14.9048C9.9435 14.6198 9.83475 14.3415 9.61575 14.1607L8.86275 13.5405C8.70866 13.4137 8.60451 13.2363 8.56881 13.04C8.5331 12.8436 8.56816 12.641 8.66775 12.468L9.6405 10.7827C9.74039 10.6096 9.89851 10.4775 10.0867 10.4101C10.2749 10.3427 10.4809 10.3442 10.668 10.4145L11.58 10.7565C11.847 10.8563 12.1433 10.8105 12.387 10.6635C12.441 10.6305 12.4965 10.599 12.552 10.5675C12.801 10.4303 12.9885 10.1963 13.035 9.91575L13.1955 8.955Z" stroke="white" stroke-width="1.5" stroke-linecap="round" stroke-linejoin="round"/>
<path d="M17.25 15C17.25 15.5967 17.0129 16.169 16.591 16.591C16.169 17.0129 15.5967 17.25 15 17.25C14.4033 17.25 13.831 17.0129 13.409 16.591C12.9871 16.169 12.75 15.5967 12.75 15C12.75 14.4033 12.9871 13.831 13.409 13.409C13.831 12.9871 14.4033 12.75 15 12.75C15.5967 12.75 16.169 12.9871 16.591 13.409C17.0129 13.831 17.25 14.4033 17.25 15Z" stroke="white" stroke-width="1.5" stroke-linecap="round" stroke-linejoin="round"/>
</svg>
