<svg width="30" height="30" viewBox="0 0 30 30" fill="none" xmlns="http://www.w3.org/2000/svg">
<rect width="30" height="30" rx="15" fill="#7F7C86"/>
<path d="M21.1875 11.625L20.7188 19.599C20.6935 20.0288 20.5049 20.4327 20.1916 20.728C19.8783 21.0233 19.464 21.1877 19.0335 21.1875H10.9665C10.536 21.1877 10.1217 21.0233 9.80837 20.728C9.49508 20.4327 9.30651 20.0288 9.28125 19.599L8.8125 11.625M13.5 14.4375H16.5M8.53125 11.625H21.4688C21.9345 11.625 22.3125 11.247 22.3125 10.7812V9.65625C22.3125 9.1905 21.9345 8.8125 21.4688 8.8125H8.53125C8.0655 8.8125 7.6875 9.1905 7.6875 9.65625V10.7812C7.6875 11.247 8.0655 11.625 8.53125 11.625Z" stroke="white" stroke-width="1.5" stroke-linecap="round" stroke-linejoin="round"/>
</svg>
