<svg width="30" height="30" viewBox="0 0 30 30" fill="none" xmlns="http://www.w3.org/2000/svg">
<rect width="30" height="30" rx="15" fill="#E38E39"/>
<path d="M7.6875 12.1875H22.3125M7.6875 12.75H22.3125M9.9375 16.6875H14.4375M9.9375 18.375H12.1875M9.375 20.625H20.625C21.0726 20.625 21.5018 20.4472 21.8182 20.1307C22.1347 19.8143 22.3125 19.3851 22.3125 18.9375V11.0625C22.3125 10.6149 22.1347 10.1857 21.8182 9.86926C21.5018 9.55279 21.0726 9.375 20.625 9.375H9.375C8.92745 9.375 8.49822 9.55279 8.18176 9.86926C7.86529 10.1857 7.6875 10.6149 7.6875 11.0625V18.9375C7.6875 19.3851 7.86529 19.8143 8.18176 20.1307C8.49822 20.4472 8.92745 20.625 9.375 20.625Z" stroke="white" stroke-width="1.5" stroke-linecap="round" stroke-linejoin="round"/>
</svg>
