<svg width="30" height="30" viewBox="0 0 30 30" fill="none" xmlns="http://www.w3.org/2000/svg">
<rect width="30" height="30" rx="15" fill="#3AAB67"/>
<path d="M7.6875 20.0625C11.6892 20.0592 15.6735 20.5892 19.5353 21.6382C20.0805 21.7867 20.625 21.3817 20.625 20.8162V20.0625M8.8125 9.375V9.9375C8.8125 10.0867 8.75324 10.2298 8.64775 10.3352C8.54226 10.4407 8.39918 10.5 8.25 10.5H7.6875M7.6875 10.5V10.2187C7.6875 9.753 8.0655 9.375 8.53125 9.375H21.1875M7.6875 10.5V17.25M21.1875 9.375V9.9375C21.1875 10.248 21.4395 10.5 21.75 10.5H22.3125M21.1875 9.375H21.4688C21.9345 9.375 22.3125 9.753 22.3125 10.2187V17.5312C22.3125 17.997 21.9345 18.375 21.4688 18.375H21.1875M7.6875 17.25V17.5312C7.6875 17.755 7.77639 17.9696 7.93463 18.1279C8.09286 18.2861 8.30747 18.375 8.53125 18.375H8.8125M7.6875 17.25H8.25C8.39918 17.25 8.54226 17.3093 8.64775 17.4148C8.75324 17.5202 8.8125 17.6633 8.8125 17.8125V18.375M21.1875 18.375V17.8125C21.1875 17.6633 21.2468 17.5202 21.3523 17.4148C21.4577 17.3093 21.6008 17.25 21.75 17.25H22.3125M21.1875 18.375H8.8125M17.25 13.875C17.25 14.4717 17.0129 15.044 16.591 15.466C16.169 15.8879 15.5967 16.125 15 16.125C14.4033 16.125 13.831 15.8879 13.409 15.466C12.9871 15.044 12.75 14.4717 12.75 13.875C12.75 13.2783 12.9871 12.706 13.409 12.284C13.831 11.8621 14.4033 11.625 15 11.625C15.5967 11.625 16.169 11.8621 16.591 12.284C17.0129 12.706 17.25 13.2783 17.25 13.875ZM19.5 13.875H19.506V13.881H19.5V13.875ZM10.5 13.875H10.506V13.881H10.5V13.875Z" stroke="white" stroke-width="1.5" stroke-linecap="round" stroke-linejoin="round"/>
</svg>
